<svg width="243" height="243" viewBox="0 0 243 243" fill="none" xmlns="http://www.w3.org/2000/svg">
<rect x="235.054" y="237.382" width="228.073" height="4.65453" rx="2.32726" transform="rotate(-180 235.054 237.382)" fill="#191824"/>
<path d="M20.9458 20.9453H58.1821C64.6086 20.9455 69.8179 26.1556 69.8179 32.5821V235.055H9.30908V32.5821C9.30908 26.1555 14.5192 20.9453 20.9458 20.9453Z" fill="#FCF5F1" stroke="#191824" stroke-width="4.65455"/>
<path d="M81.4546 79.1271H118.691C125.117 79.1273 130.327 84.3373 130.327 90.7639V235.055H69.8179V90.7639C69.8179 84.3373 75.028 79.1271 81.4546 79.1271Z" fill="#FCF5F1" stroke="#191824" stroke-width="4.65455"/>
<path d="M88.4365 67.4908H111.709C115.565 67.4909 118.69 70.6173 118.69 74.4732V79.1275H81.4541V74.4732C81.4541 70.6173 84.5806 67.4908 88.4365 67.4908Z" fill="#7FB8FF" stroke="#191824" stroke-width="4.65455"/>
<path d="M97.7451 55.8544H102.4C104.971 55.8546 107.054 57.9384 107.055 60.5087V67.4911H93.0908V60.5087C93.091 57.9384 95.1748 55.8546 97.7451 55.8544Z" fill="#7FB8FF" stroke="#191824" stroke-width="4.65455"/>
<path d="M97.7451 44.2182C97.7451 42.9329 98.7871 41.8909 100.072 41.8909C101.358 41.8909 102.4 42.9329 102.4 44.2182V55.8545C102.4 57.1399 101.358 58.1818 100.072 58.1818C98.7871 58.1818 97.7451 57.1399 97.7451 55.8546V44.2182Z" fill="#191824"/>
<path d="M23.2725 93.0908H32.582C33.8672 93.0909 34.909 94.1328 34.9092 95.4179V109.382C34.9092 110.667 33.8672 111.709 32.582 111.709H23.2725C21.9873 111.709 20.9453 110.667 20.9453 109.382V95.4179C20.9454 94.1328 21.9873 93.0909 23.2725 93.0908Z" fill="#EDE3DB" stroke="#191824" stroke-width="4.65455"/>
<path d="M23.2725 121.018H32.582C33.8672 121.018 34.909 122.06 34.9092 123.345V137.309C34.9092 138.594 33.8672 139.636 32.582 139.636H23.2725C21.9873 139.636 20.9453 138.594 20.9453 137.309V123.345C20.9454 122.06 21.9873 121.018 23.2725 121.018Z" fill="#EDE3DB" stroke="#191824" stroke-width="4.65455"/>
<path d="M23.2725 65.1635H32.582C33.8672 65.1636 34.909 66.2055 34.9092 67.4907V81.4545C34.9092 82.7398 33.8672 83.7816 32.582 83.7817H23.2725C21.9873 83.7815 20.9453 82.7398 20.9453 81.4545V67.4907C20.9454 66.2055 21.9873 65.1636 23.2725 65.1635Z" fill="#EDE3DB" stroke="#191824" stroke-width="4.65455"/>
<path d="M83.7812 121.018H93.0908C94.3759 121.018 95.4178 122.06 95.418 123.345V137.309C95.418 138.594 94.376 139.636 93.0908 139.636H83.7812C82.496 139.636 81.4541 138.594 81.4541 137.309V123.345C81.4542 122.06 82.4961 121.018 83.7812 121.018Z" fill="#EDE3DB" stroke="#191824" stroke-width="4.65455"/>
<path d="M23.2725 176.873H32.582C33.8672 176.873 34.909 177.915 34.9092 179.2V193.164C34.9092 194.449 33.8672 195.491 32.582 195.491H23.2725C21.9873 195.491 20.9453 194.449 20.9453 193.164V179.2C20.9454 177.915 21.9873 176.873 23.2725 176.873Z" fill="#EDE3DB" stroke="#191824" stroke-width="4.65455"/>
<path d="M83.7812 176.873H93.0908C94.3759 176.873 95.4178 177.915 95.418 179.2V193.164C95.418 194.449 94.376 195.491 93.0908 195.491H83.7812C82.496 195.491 81.4541 194.449 81.4541 193.164V179.2C81.4542 177.915 82.4961 176.873 83.7812 176.873Z" fill="#EDE3DB" stroke="#191824" stroke-width="4.65455"/>
<path d="M23.2725 204.8H32.582C33.8672 204.8 34.909 205.842 34.9092 207.127V221.091C34.9092 222.376 33.8672 223.418 32.582 223.418H23.2725C21.9873 223.418 20.9453 222.376 20.9453 221.091V207.127C20.9454 205.842 21.9873 204.8 23.2725 204.8Z" fill="#EDE3DB" stroke="#191824" stroke-width="4.65455"/>
<path d="M83.7812 204.8H93.0908C94.3759 204.8 95.4178 205.842 95.418 207.127V221.091C95.418 222.376 94.376 223.418 93.0908 223.418H83.7812C82.496 223.418 81.4541 222.376 81.4541 221.091V207.127C81.4542 205.842 82.4961 204.8 83.7812 204.8Z" fill="#EDE3DB" stroke="#191824" stroke-width="4.65455"/>
<path d="M46.5449 93.0908H55.8545C57.1396 93.0909 58.1815 94.1328 58.1816 95.4179V109.382C58.1816 110.667 57.1397 111.709 55.8545 111.709H46.5449C45.2597 111.709 44.2178 110.667 44.2178 109.382V95.4179C44.2179 94.1328 45.2598 93.0909 46.5449 93.0908Z" fill="#2ADFBB" stroke="#191824" stroke-width="4.65455"/>
<path d="M46.5449 37.2362H55.8545C57.1396 37.2364 58.1815 38.2783 58.1816 39.5634V53.5273C58.1816 54.8125 57.1397 55.8543 55.8545 55.8544H46.5449C45.2597 55.8543 44.2178 54.8125 44.2178 53.5273V39.5634C44.2179 38.2783 45.2598 37.2364 46.5449 37.2362Z" fill="#2ADFBB" stroke="#191824" stroke-width="4.65455"/>
<path d="M46.5449 121.018H55.8545C57.1396 121.018 58.1815 122.06 58.1816 123.345V137.309C58.1816 138.594 57.1397 139.636 55.8545 139.636H46.5449C45.2597 139.636 44.2178 138.594 44.2178 137.309V123.345C44.2179 122.06 45.2598 121.018 46.5449 121.018Z" fill="#EDE3DB" stroke="#191824" stroke-width="4.65455"/>
<path d="M46.5449 65.1635H55.8545C57.1396 65.1636 58.1815 66.2055 58.1816 67.4907V81.4545C58.1816 82.7398 57.1397 83.7816 55.8545 83.7817H46.5449C45.2597 83.7815 44.2178 82.7398 44.2178 81.4545V67.4907C44.2179 66.2055 45.2598 65.1636 46.5449 65.1635Z" fill="#EDE3DB" stroke="#191824" stroke-width="4.65455"/>
<path d="M107.054 121.018H116.364C117.649 121.018 118.691 122.06 118.691 123.345V137.309C118.691 138.594 117.649 139.636 116.364 139.636H107.054C105.769 139.636 104.727 138.594 104.727 137.309V123.345C104.727 122.06 105.769 121.018 107.054 121.018Z" fill="#EDE3DB" stroke="#191824" stroke-width="4.65455"/>
<path d="M46.5449 148.945H55.8545C57.1396 148.945 58.1815 149.987 58.1816 151.272V165.236C58.1816 166.522 57.1397 167.563 55.8545 167.564H46.5449C45.2597 167.563 44.2178 166.522 44.2178 165.236V151.272C44.2179 149.987 45.2598 148.945 46.5449 148.945Z" fill="#EDE3DB" stroke="#191824" stroke-width="4.65455"/>
<path d="M107.054 148.945H116.364C117.649 148.945 118.691 149.987 118.691 151.272V165.236C118.691 166.522 117.649 167.563 116.364 167.564H107.054C105.769 167.563 104.727 166.522 104.727 165.236V151.272C104.727 149.987 105.769 148.945 107.054 148.945Z" fill="#EDE3DB" stroke="#191824" stroke-width="4.65455"/>
<path d="M107.054 93.0908H116.364C117.649 93.0909 118.691 94.1328 118.691 95.4179V109.382C118.691 110.667 117.649 111.709 116.364 111.709H107.054C105.769 111.709 104.727 110.667 104.727 109.382V95.4179C104.727 94.1328 105.769 93.0909 107.054 93.0908Z" fill="#EDE3DB" stroke="#191824" stroke-width="4.65455"/>
<path d="M23.2725 148.945H32.582C33.8672 148.945 34.909 149.987 34.9092 151.272V165.236C34.9092 166.522 33.8672 167.563 32.582 167.564H23.2725C21.9873 167.563 20.9453 166.522 20.9453 165.236V151.272C20.9454 149.987 21.9873 148.945 23.2725 148.945Z" fill="#2ADFBB" stroke="#191824" stroke-width="4.65455"/>
<path d="M23.2725 37.2362H32.582C33.8672 37.2364 34.909 38.2783 34.9092 39.5634V53.5273C34.9092 54.8125 33.8672 55.8543 32.582 55.8544H23.2725C21.9873 55.8543 20.9453 54.8125 20.9453 53.5273V39.5634C20.9454 38.2783 21.9873 37.2364 23.2725 37.2362Z" fill="#2ADFBB" stroke="#191824" stroke-width="4.65455"/>
<path d="M83.7812 148.945H93.0908C94.3759 148.945 95.4178 149.987 95.418 151.272V165.236C95.418 166.522 94.376 167.563 93.0908 167.564H83.7812C82.496 167.563 81.4541 166.522 81.4541 165.236V151.272C81.4542 149.987 82.4961 148.945 83.7812 148.945Z" fill="#2ADFBB" stroke="#191824" stroke-width="4.65455"/>
<path d="M83.7812 93.0908H93.0908C94.3759 93.0909 95.4178 94.1328 95.418 95.4179V109.382C95.418 110.667 94.376 111.709 93.0908 111.709H83.7812C82.496 111.709 81.4541 110.667 81.4541 109.382V95.4179C81.4542 94.1328 82.4961 93.0909 83.7812 93.0908Z" fill="#2ADFBB" stroke="#191824" stroke-width="4.65455"/>
<path d="M46.5449 176.873H55.8545C57.1396 176.873 58.1815 177.915 58.1816 179.2V193.164C58.1816 194.449 57.1397 195.491 55.8545 195.491H46.5449C45.2597 195.491 44.2178 194.449 44.2178 193.164V179.2C44.2179 177.915 45.2598 176.873 46.5449 176.873Z" fill="#2ADFBB" stroke="#191824" stroke-width="4.65455"/>
<path d="M107.054 176.873H116.364C117.649 176.873 118.691 177.915 118.691 179.2V193.164C118.691 194.449 117.649 195.491 116.364 195.491H107.054C105.769 195.491 104.727 194.449 104.727 193.164V179.2C104.727 177.915 105.769 176.873 107.054 176.873Z" fill="#2ADFBB" stroke="#191824" stroke-width="4.65455"/>
<path d="M46.5449 204.8H55.8545C57.1396 204.8 58.1815 205.842 58.1816 207.127V221.091C58.1816 222.376 57.1397 223.418 55.8545 223.418H46.5449C45.2597 223.418 44.2178 222.376 44.2178 221.091V207.127C44.2179 205.842 45.2598 204.8 46.5449 204.8Z" fill="#EDE3DB" stroke="#191824" stroke-width="4.65455"/>
<path d="M107.054 204.8H116.364C117.649 204.8 118.691 205.842 118.691 207.127V221.091C118.691 222.376 117.649 223.418 116.364 223.418H107.054C105.769 223.418 104.727 222.376 104.727 221.091V207.127C104.727 205.842 105.769 204.8 107.054 204.8Z" fill="#EDE3DB" stroke="#191824" stroke-width="4.65455"/>
<circle cx="167.563" cy="183.855" r="23.2727" fill="#2ADFBB" stroke="#191824" stroke-width="4.65455"/>
<path d="M209.454 130.44C209.713 130.619 210.073 130.929 210.529 131.414C211.489 132.436 212.652 133.989 213.955 136.003C216.55 140.014 219.517 145.567 222.326 151.607C225.132 157.639 227.75 164.095 229.662 169.892C231.598 175.763 232.728 180.718 232.728 183.855C232.728 196.708 222.307 207.127 209.454 207.127C196.601 207.127 186.182 196.708 186.182 183.855C186.182 180.718 187.31 175.763 189.246 169.892C191.158 164.094 193.777 157.639 196.583 151.607C199.392 145.567 202.36 140.014 204.954 136.003C206.257 133.989 207.42 132.436 208.38 131.414C208.836 130.929 209.195 130.619 209.454 130.44Z" fill="#2ADFBB" stroke="#191824" stroke-width="4.65455"/>
<path d="M163.536 237.382L163.536 186.182C163.536 184.896 164.578 183.855 165.863 183.855C167.149 183.855 168.191 184.896 168.191 186.182L168.191 237.382L163.536 237.382Z" fill="#191824"/>
<path d="M164.146 197.064L157.573 190.491C156.664 189.582 156.664 188.109 157.573 187.2C158.482 186.291 159.955 186.291 160.864 187.2L167.437 193.773L164.146 197.064Z" fill="#191824"/>
<path d="M164.495 197.468L174.486 187.477C175.395 186.569 176.868 186.569 177.777 187.477C178.686 188.386 178.686 189.86 177.777 190.769L167.786 200.759L164.495 197.468Z" fill="#191824"/>
<path d="M204.8 237.382L204.8 167.564C204.8 166.278 205.842 165.237 207.127 165.237C208.412 165.237 209.454 166.278 209.454 167.564L209.454 237.382L204.8 237.382Z" fill="#191824"/>
<path d="M206.036 180.773L199.464 174.2C198.555 173.292 198.555 171.818 199.464 170.909C200.372 170 201.846 170 202.755 170.909L209.327 177.482L206.036 180.773Z" fill="#191824"/>
<path d="M206.036 200.019L199.464 193.446C198.555 192.537 198.555 191.064 199.464 190.155C200.372 189.246 201.846 189.246 202.755 190.155L209.327 196.727L206.036 200.019Z" fill="#191824"/>
<path d="M206.386 181.177L216.377 171.187C217.286 170.278 218.759 170.278 219.668 171.187C220.577 172.095 220.577 173.569 219.668 174.478L209.677 184.469L206.386 181.177Z" fill="#191824"/>
<path fill-rule="evenodd" clip-rule="evenodd" d="M153.475 51.2C152.025 51.2 150.876 49.9189 151.402 48.5676C152.923 44.6602 156.721 41.8909 161.166 41.8909C165.611 41.8909 169.409 44.6601 170.929 48.5674C171.455 49.9188 170.307 51.2 168.857 51.2C167.699 51.2 166.746 50.3463 166.147 49.3559C165.128 47.6714 163.278 46.5455 161.166 46.5455C159.053 46.5455 157.203 47.6714 156.184 49.356C155.585 50.3463 154.632 51.2 153.475 51.2Z" fill="#191824"/>
<path fill-rule="evenodd" clip-rule="evenodd" d="M181.402 27.9273C179.952 27.9273 178.804 26.6462 179.33 25.2949C180.85 21.3875 184.648 18.6182 189.093 18.6182C193.538 18.6182 197.336 21.3874 198.857 25.2947C199.382 26.6461 198.234 27.9273 196.784 27.9273C195.627 27.9273 194.674 27.0735 194.074 26.0832C193.055 24.3987 191.206 23.2727 189.093 23.2727C186.98 23.2727 185.131 24.3987 184.111 26.0833C183.512 27.0736 182.559 27.9273 181.402 27.9273Z" fill="#191824"/>
<path fill-rule="evenodd" clip-rule="evenodd" d="M202.347 65.1636C200.897 65.1636 199.749 63.8825 200.275 62.5312C201.795 58.6238 205.594 55.8545 210.039 55.8545C214.484 55.8545 218.282 58.6238 219.802 62.5312C220.328 63.8825 219.18 65.1636 217.73 65.1636C216.572 65.1636 215.619 64.3099 215.02 63.3196C214.001 61.635 212.151 60.5091 210.039 60.5091C207.926 60.5091 206.076 61.635 205.057 63.3196C204.458 64.3099 203.505 65.1636 202.347 65.1636Z" fill="#191824"/>
<path fill-rule="evenodd" clip-rule="evenodd" d="M172.093 90.7636C170.643 90.7636 169.495 89.4825 170.02 88.1312C171.541 84.2238 175.339 81.4545 179.784 81.4545C184.229 81.4545 188.027 84.2238 189.547 88.1311C190.073 89.4825 188.925 90.7636 187.475 90.7636C186.318 90.7636 185.365 89.9099 184.765 88.9195C183.746 87.235 181.896 86.1091 179.784 86.1091C177.671 86.1091 175.822 87.2351 174.802 88.9196C174.203 89.91 173.25 90.7636 172.093 90.7636Z" fill="#191824"/>
<path fill-rule="evenodd" clip-rule="evenodd" d="M169.766 51.2C168.316 51.2 167.167 49.9188 167.693 48.5674C169.214 44.6601 173.012 41.8909 177.457 41.8909C181.902 41.8909 185.7 44.6602 187.22 48.5677C187.746 49.9189 186.598 51.2 185.148 51.2C183.991 51.2 183.038 50.3463 182.438 49.356C181.419 47.6715 179.57 46.5455 177.457 46.5455C175.344 46.5455 173.495 47.6714 172.475 49.3559C171.876 50.3462 170.923 51.2 169.766 51.2Z" fill="#191824"/>
<path fill-rule="evenodd" clip-rule="evenodd" d="M197.693 27.9273C196.243 27.9273 195.095 26.6462 195.62 25.2949C197.141 21.3875 200.939 18.6182 205.384 18.6182C209.829 18.6182 213.627 21.3874 215.147 25.2947C215.673 26.6461 214.525 27.9273 213.075 27.9273C211.917 27.9273 210.964 27.0735 210.365 26.0831C209.346 24.3986 207.496 23.2727 205.384 23.2727C203.271 23.2727 201.421 24.3987 200.402 26.0833C199.803 27.0736 198.85 27.9273 197.693 27.9273Z" fill="#191824"/>
<path fill-rule="evenodd" clip-rule="evenodd" d="M218.638 65.1636C217.188 65.1636 216.04 63.8825 216.566 62.5312C218.086 58.6238 221.884 55.8545 226.329 55.8545C230.774 55.8545 234.573 58.6238 236.093 62.5311C236.619 63.8825 235.471 65.1636 234.021 65.1636C232.863 65.1636 231.91 64.3099 231.311 63.3196C230.292 61.635 228.442 60.5091 226.329 60.5091C224.217 60.5091 222.367 61.6351 221.348 63.3196C220.749 64.3099 219.796 65.1636 218.638 65.1636Z" fill="#191824"/>
<path fill-rule="evenodd" clip-rule="evenodd" d="M188.384 90.7636C186.934 90.7636 185.786 89.4824 186.311 88.131C187.832 84.2237 191.63 81.4545 196.075 81.4545C200.52 81.4545 204.318 84.2239 205.838 88.1313C206.364 89.4826 205.216 90.7636 203.766 90.7636C202.609 90.7636 201.656 89.91 201.057 88.9197C200.037 87.2351 198.188 86.1091 196.075 86.1091C193.963 86.1091 192.113 87.235 191.094 88.9195C190.494 89.9099 189.541 90.7636 188.384 90.7636Z" fill="#191824"/>
</svg>
