<svg width="78" height="20" viewBox="0 0 78 20" fill="none" xmlns="http://www.w3.org/2000/svg">
<path d="M3.59962 9.95422C3.63203 9.95422 3.65739 9.97958 3.65739 10.012C3.68838 11.7449 5.10287 13.1411 6.84422 13.1411H12.8023C12.8473 13.1411 12.8769 13.1904 12.8558 13.2298C11.6949 15.3558 9.43933 16.7998 6.84562 16.7998C3.08539 16.7998 0.0324037 13.768 0 10.0148C0 9.98099 0.0267682 9.95422 0.0605807 9.95422H3.59962Z" fill="#3BD1BB"/>
<path d="M10.0902 9.95414C10.0578 9.95414 10.0324 9.92879 10.0324 9.89638C10.0015 8.16349 8.58696 6.76732 6.84562 6.76732H0.887572C0.842488 6.76732 0.812902 6.71801 0.834035 6.67856C1.99493 4.5526 4.25051 3.10852 6.84421 3.10852C10.6044 3.10852 13.6574 6.14038 13.6898 9.89357C13.6898 9.92738 13.6631 9.95414 13.6293 9.95414H10.0888H10.0902Z" fill="#3BD1BB"/>
<path d="M54.0494 8.34312C55.3427 8.34312 56.0415 9.09404 56.1852 9.98726H58.4478C58.2858 8.05713 56.705 6.26929 54.0494 6.26929C51.1034 6.26929 49.255 8.3234 49.255 11.1312C49.255 13.9391 51.1584 15.9946 54.0494 15.9946C56.7234 15.9946 58.2858 14.2068 58.4478 12.2766H56.1852C56.0415 13.1699 55.3413 13.9208 54.0494 13.9208C52.4686 13.9208 51.5529 12.7754 51.5529 11.1312C51.5529 9.48711 52.4686 8.34312 54.0494 8.34312Z" fill="#191824"/>
<path d="M61.7459 7.41895H59.4481V15.8509H61.7459V7.41895Z" fill="#191824"/>
<path d="M44.8326 6.26648H44.8354C42.1178 6.26789 41.6697 8.5136 41.6416 8.67562V6.57784H39.3409V15.8495H41.6388V12.0062C41.6388 9.82525 42.8602 8.34031 44.1888 8.34031C45.3919 8.34031 45.947 8.93062 45.947 11.058V15.8495H48.2449V10.2719C48.2449 7.5908 46.8797 6.26648 44.8326 6.26648Z" fill="#191824"/>
<path d="M33.6801 6.26794C30.7892 6.26794 28.9591 8.18258 28.9591 11.1313C28.9591 14.08 30.6455 15.9947 33.7168 15.9947C36.2471 15.9947 37.577 14.5112 37.9898 12.5627H35.6553C35.3863 13.4024 34.8312 13.9913 33.7351 13.9913C32.2995 13.9913 31.3654 13.1333 31.2034 11.7033H38.0983C38.1335 11.4342 38.1518 11.2553 38.1518 11.0045C38.1518 7.57113 35.8709 6.26794 33.6801 6.26794ZM31.2949 10.1296C31.5288 9.00253 32.191 8.12622 33.7534 8.12622C35.0819 8.12622 35.7638 8.98563 35.854 10.1296H31.2949Z" fill="#191824"/>
<path d="M28.0419 13.7348H23.1532L29.4536 5.82835V4.07996H20.072V6.17351H26.3062L19.9508 14.1829V15.8284H29.7381C28.9802 15.3099 28.411 14.5942 28.0419 13.7348Z" fill="#191824"/>
<path d="M61.7459 4.07996H59.4481V6.41302H61.7459V4.07996Z" fill="#191824"/>
<path d="M65.2314 13.0911V9.62527V8.70106H67.5082L66.567 6.41168H65.2314V4.07861H62.9322V9.62527H62.9336V12.9544C62.9336 15.2255 63.831 15.8496 65.7344 15.8496H67.8167V13.5602H65.7048C65.4442 13.5602 65.2329 13.3489 65.2329 13.0896L65.2314 13.0911Z" fill="#191824"/>
<path d="M75.0103 6.41303V6.41162L72.828 12.9698L70.5499 6.41162H67.8491L71.4684 15.7721L70.0075 20H72.4067L77.7139 6.41303H75.0103Z" fill="#191824"/>
</svg>
