<svg width="32" height="32" viewBox="0 0 20 20" fill="none" xmlns="http://www.w3.org/2000/svg">
<path d="M3.59962 9.95422C3.63203 9.95422 3.65739 9.97958 3.65739 10.012C3.68838 11.7449 5.10287 13.1411 6.84422 13.1411H12.8023C12.8473 13.1411 12.8769 13.1904 12.8558 13.2298C11.6949 15.3558 9.43933 16.7998 6.84562 16.7998C3.08539 16.7998 0.0324037 13.768 0 10.0148C0 9.98099 0.0267682 9.95422 0.0605807 9.95422H3.59962Z" fill="#3BD1BB"/>
<path d="M10.0902 9.95414C10.0578 9.95414 10.0324 9.92879 10.0324 9.89638C10.0015 8.16349 8.58696 6.76732 6.84562 6.76732H0.887572C0.842488 6.76732 0.812902 6.71801 0.834035 6.67856C1.99493 4.5526 4.25051 3.10852 6.84421 3.10852C10.6044 3.10852 13.6574 6.14038 13.6898 9.89357C13.6898 9.92738 13.6631 9.95414 13.6293 9.95414H10.0888H10.0902Z" fill="#3BD1BB"/>
</svg>
